<svg width="60" height="60" viewBox="0 0 60 60" fill="none" xmlns="http://www.w3.org/2000/svg">
<path d="M30 36.5625C28.8875 36.5625 27.7999 36.8924 26.8749 37.5105C25.9499 38.1286 25.2289 39.0071 24.8032 40.0349C24.3774 41.0627 24.266 42.1937 24.4831 43.2849C24.7001 44.376 25.2359 45.3783 26.0225 46.165C26.8092 46.9516 27.8115 47.4874 28.9026 47.7044C29.9938 47.9215 31.1248 47.8101 32.1526 47.3843C33.1804 46.9586 34.0589 46.2376 34.677 45.3126C35.2951 44.3876 35.625 43.3 35.625 42.1875C35.6235 40.6961 35.0304 39.2662 33.9758 38.2117C32.9213 37.1571 31.4914 36.564 30 36.5625ZM30 45C29.4437 45 28.9 44.835 28.4375 44.526C27.9749 44.217 27.6145 43.7777 27.4016 43.2638C27.1887 42.7499 27.133 42.1844 27.2415 41.6388C27.3501 41.0932 27.6179 40.5921 28.0113 40.1988C28.4046 39.8054 28.9057 39.5376 29.4513 39.429C29.9969 39.3205 30.5624 39.3762 31.0763 39.5891C31.5902 39.802 32.0295 40.1624 32.3385 40.625C32.6476 41.0875 32.8125 41.6312 32.8125 42.1875C32.8125 42.9334 32.5162 43.6488 31.9887 44.1762C31.4613 44.7037 30.7459 45 30 45Z" fill="#0F007F"/>
<path d="M30.4828 20.625C35.0856 20.6135 39.5513 22.1914 43.125 25.0922V6.5625C43.125 5.56794 42.7299 4.61411 42.0266 3.91085C41.3234 3.20759 40.3696 2.8125 39.375 2.8125C38.3804 2.8125 37.4266 3.20759 36.7234 3.91085C36.0201 4.61411 35.625 5.56794 35.625 6.5625V17.8125C35.625 18.0611 35.5262 18.2996 35.3504 18.4754C35.1746 18.6512 34.9361 18.75 34.6875 18.75C34.4389 18.75 34.2004 18.6512 34.0246 18.4754C33.8488 18.2996 33.75 18.0611 33.75 17.8125V6.5625C33.75 5.56794 33.3549 4.61411 32.6516 3.91085C31.9484 3.20759 30.9946 2.8125 30 2.8125C29.0054 2.8125 28.0516 3.20759 27.3484 3.91085C26.6451 4.61411 26.25 5.56794 26.25 6.5625V17.8125C26.25 18.0611 26.1512 18.2996 25.9754 18.4754C25.7996 18.6512 25.5611 18.75 25.3125 18.75C25.0639 18.75 24.8254 18.6512 24.6496 18.4754C24.4738 18.2996 24.375 18.0611 24.375 17.8125V6.5625C24.375 5.56794 23.9799 4.61411 23.2766 3.91085C22.5734 3.20759 21.6196 2.8125 20.625 2.8125C19.6304 2.8125 18.6766 3.20759 17.9734 3.91085C17.2701 4.61411 16.875 5.56794 16.875 6.5625V25.0922C20.4487 22.1914 24.9144 20.6135 29.5172 20.625H30.4828ZM38.4375 5.625H40.3125V7.5H38.4375V5.625ZM38.4375 9.375H40.3125V11.25H38.4375V9.375ZM38.4375 13.125H40.3125V15H38.4375V13.125ZM38.4375 16.875H40.3125V18.75H38.4375V16.875ZM21.5625 18.75H19.6875V16.875H21.5625V18.75ZM21.5625 15H19.6875V13.125H21.5625V15ZM21.5625 11.25H19.6875V9.375H21.5625V11.25ZM21.5625 7.5H19.6875V5.625H21.5625V7.5ZM29.0625 5.625H30.9375V7.5H29.0625V5.625ZM29.0625 9.375H30.9375V11.25H29.0625V9.375ZM29.0625 13.125H30.9375V15H29.0625V13.125ZM29.0625 16.875H30.9375V18.75H29.0625V16.875Z" fill="#245C76"/>
<path d="M36.1406 37.8945C37.0252 39.1512 37.5 40.6505 37.5 42.1873C37.5 43.7242 37.0252 45.2235 36.1406 46.4802C37.778 45.7423 39.2686 44.7146 40.5403 43.4464L41.7994 42.1873L40.5403 40.9283C39.2686 39.6601 37.778 38.6324 36.1406 37.8945Z" fill="#0F007F"/>
<path d="M19.4597 40.9283L18.2007 42.1873L19.4597 43.4464C20.7315 44.7146 22.222 45.7423 23.8594 46.4802C22.9748 45.2235 22.5 43.7242 22.5 42.1873C22.5 40.6505 22.9748 39.1512 23.8594 37.8945C22.222 38.6324 20.7315 39.6601 19.4597 40.9283Z" fill="#0F007F"/>
<path d="M44.8425 27.7079C44.7306 27.8749 44.5679 28.0016 44.3785 28.0691C44.1891 28.1366 43.983 28.1414 43.7906 28.0829C43.6445 28.0367 43.5123 27.9545 43.4062 27.8438L43.3978 27.8523C41.7059 26.1505 39.6933 24.8011 37.4765 23.8824C35.2596 22.9637 32.8825 22.4939 30.4828 22.5001H29.5172C27.1173 22.4934 24.74 22.9628 22.5228 23.8812C20.3056 24.7996 18.2926 26.1487 16.6003 27.8504L16.5938 27.8438C16.4886 27.9556 16.3571 28.0391 16.2113 28.0866C16.0189 28.1452 15.8128 28.1404 15.6234 28.0728C15.434 28.0053 15.2713 27.8787 15.1594 27.7116C14.1122 26.1346 12.697 24.8361 11.0359 23.9282C9.37484 23.0202 7.51778 22.5301 5.625 22.5001V22.7448C5.62916 24.5594 6.05362 26.3485 6.86511 27.9716C7.67659 29.5947 8.85303 31.0078 10.3022 32.1001C11.5203 33.0203 12.4082 34.3098 12.8334 35.776L15.0834 33.526C17.055 31.5543 19.3956 29.9902 21.9717 28.9231C24.5477 27.856 27.3087 27.3068 30.097 27.3068C32.8853 27.3068 35.6464 27.856 38.2224 28.9231C40.7984 29.9902 43.1391 31.5543 45.1106 33.526L47.2172 35.6316C47.6564 34.223 48.5254 32.9871 49.7025 32.0973C51.1502 31.005 52.3253 29.5924 53.1359 27.9702C53.9466 26.348 54.3707 24.5601 54.375 22.7466V22.5001C52.4829 22.53 50.6264 23.0197 48.9657 23.927C47.305 24.8342 45.8899 26.1318 44.8425 27.7079Z" fill="#245C76"/>
<path d="M30.0937 29.1866C27.5506 29.1794 25.0314 29.6768 22.6819 30.6501C20.3324 31.6234 18.1993 33.0531 16.4062 34.8566L13.125 38.1379V40.3129C13.125 44.7884 14.9029 49.0806 18.0676 52.2453C21.2322 55.41 25.5245 57.1879 30 57.1879C34.4755 57.1879 38.7677 55.41 41.9324 52.2453C45.0971 49.0806 46.875 44.7884 46.875 40.3129V37.9504L43.7812 34.8566C41.9882 33.0531 39.8552 31.6233 37.5057 30.65C35.1562 29.6768 32.6369 29.1793 30.0937 29.1866ZM43.7878 42.8507L41.8659 44.7725C38.7189 47.9195 34.4506 49.6875 30 49.6875C25.5494 49.6875 21.2811 47.9195 18.1341 44.7725L16.2122 42.8507C16.0364 42.6749 15.9377 42.4364 15.9377 42.1879C15.9377 41.9393 16.0364 41.7008 16.2122 41.525L18.1341 39.6032C21.2811 36.4562 25.5494 34.6882 30 34.6882C34.4506 34.6882 38.7189 36.4562 41.8659 39.6032L43.7878 41.525C43.9636 41.7008 44.0623 41.9393 44.0623 42.1879C44.0623 42.4364 43.9636 42.6749 43.7878 42.8507Z" fill="#245C76"/>
</svg>
