<svg width="144" height="41" viewBox="0 0 144 41" fill="none" xmlns="http://www.w3.org/2000/svg">
<g filter="url(#filter0_i_292_83)">
<path d="M23.7899 32.8272C23.7899 38.0033 24.615 40.1146 26.9527 40.1146C26.9527 40.1827 26.9527 40.387 26.9527 40.4552C26.1276 40.4552 19.5957 40.4552 19.5957 40.4552V35.2791C18.2893 38.6163 15.3328 41 10.9323 41C4.53795 41 0 36.4369 0 30.7159C0 21.7259 11.4136 19.0017 19.5957 19.0017V18.5249C19.5957 14.098 18.4268 10.6927 14.6452 10.6927C11.4136 10.6927 10.0385 13.0764 9.69472 16.4136L7.63201 12.4635C9.21342 10.7608 11.6199 9.87542 14.6452 9.87542C20.2145 9.87542 23.7899 13.1445 23.7899 18.5249V32.8272ZM19.5957 30.8522V19.887C11.6887 19.887 4.12541 22.6794 4.12541 30.7159C4.12541 35.2791 6.66942 39.5698 11.6887 39.5698C16.6392 39.5698 19.5957 35.3472 19.5957 30.8522Z" fill="#905026"/>
<path d="M74.4696 32.7591C74.4696 37.9352 75.2947 40.1146 77.6324 40.1146C77.6324 40.1827 77.6324 40.387 77.6324 40.387C76.8073 40.387 70.2754 40.387 70.2754 40.387V37.7309C68.3502 39.6379 65.6 41 61.6121 41C55.2177 41 50.6797 37.0498 50.6797 31.397C50.6797 20.7724 70.2754 22.8156 70.2754 14.711C70.2754 11.9186 68.6253 10.6927 65.3249 10.6927C51.9861 10.6927 45.1792 30.3754 43.804 35.4153L42.4977 40.387H38.3035L32.2529 18.0482C30.8777 13.0083 29.3651 10.7608 27.0961 10.7608C27.0961 10.6927 27.0961 10.4884 27.0961 10.4884C27.8524 10.4884 36.7221 10.4884 37.5472 10.4884C37.5472 10.4884 37.5472 10.6927 37.5472 10.7608C35.2094 10.7608 35.1407 13.0764 36.4471 18.0482L42.0164 38.8206L42.979 35.4153C44.6979 29.0133 50.9548 9.87542 65.3249 9.87542C70.8942 9.87542 74.4696 11.7143 74.4696 14.2342C74.4696 20.4319 54.8051 21.4535 54.8051 32.4186C54.8051 36.5731 58.3117 39.5698 62.9184 39.5698C71.3068 39.5698 73.6445 30.1711 73.6445 25.608H74.4696V32.7591Z" fill="#905026"/>
<path d="M106.552 32.8272C106.552 38.0033 107.377 40.1146 109.714 40.1146C109.714 40.1827 109.714 40.387 109.714 40.387C108.889 40.387 100.02 40.387 99.2634 40.387C99.2634 40.387 99.2634 40.1827 99.2634 40.1146C101.532 40.1146 102.357 38.0033 102.357 32.8272V16.9585C102.357 13.0764 99.2634 10.897 95.2068 10.897C92.319 10.897 89.7062 12.0548 88.2623 13.8256V32.8272C88.2623 38.0033 89.0874 40.1146 91.4252 40.1146C91.4252 40.1827 91.4252 40.387 91.4252 40.4552C90.6001 40.4552 81.7304 40.4552 80.9741 40.4552C80.9741 40.387 80.9741 40.1827 80.9741 40.1146C83.2431 40.1146 84.0682 38.0033 84.0682 32.8272V16.5498C84.0682 14.5066 83.7244 13.6894 82.5555 13.6894C82.5555 13.5532 82.5555 13.4169 82.5555 13.3488C84.8933 13.3488 87.9873 12.0548 87.9873 10.4884C88.0561 10.4884 88.2623 10.4884 88.2623 10.4884C88.2623 11.2375 88.2623 12.7359 88.2623 12.7359C89.9125 11.1694 92.4565 9.87542 96.0319 9.87542C101.257 9.87542 106.552 12.3954 106.552 16.9585V32.8272Z" fill="#905026"/>
<path d="M124.861 40.0465C127.267 40.0465 129.193 38.8206 130.636 37.0498V38.1395C128.986 39.706 126.717 41 123.417 41C118.329 41 115.579 37.7309 115.579 32.3505V11.3056H110.834V10.4884H115.579V6.12957C115.579 4.01827 115.235 3.201 114.066 3.201C114.066 3.06479 114.066 2.99668 114.066 2.92857C116.404 2.92857 119.429 1.56645 119.429 0C119.567 0 119.704 0 119.773 0C119.773 0.817277 119.773 10.4884 119.773 10.4884H126.924V11.3056H119.773V32.3505C119.773 36.7774 121.217 40.0465 124.861 40.0465Z" fill="#905026"/>
<path d="M140.837 33.1678C140.906 38.0714 141.731 40.1146 144 40.1146C144 40.1827 144 40.387 144 40.387C143.175 40.387 140.837 40.387 140.837 40.387C140.837 40.387 134.305 40.387 133.549 40.387C133.549 40.387 133.549 40.1827 133.549 40.1146C135.818 40.1146 136.643 38.0033 136.643 32.8272V16.5498C136.643 14.5066 136.299 13.6894 135.13 13.6894C135.13 13.5532 135.13 13.4169 135.13 13.3488C137.468 13.3488 140.562 12.0548 140.562 10.4884C140.631 10.4884 140.837 10.4884 140.837 10.4884C140.837 11.2375 140.837 33.1678 140.837 33.1678ZM138.774 8.99004C137.606 8.99004 136.643 8.03655 136.643 6.87874C136.643 5.78904 137.606 4.83555 138.774 4.83555C139.943 4.83555 140.837 5.78904 140.837 6.87874C140.837 8.03655 139.943 8.99004 138.774 8.99004Z" fill="#905026"/>
</g>
<defs>
<filter id="filter0_i_292_83" x="0" y="0" width="144" height="45" filterUnits="userSpaceOnUse" color-interpolation-filters="sRGB">
<feFlood flood-opacity="0" result="BackgroundImageFix"/>
<feBlend mode="normal" in="SourceGraphic" in2="BackgroundImageFix" result="shape"/>
<feColorMatrix in="SourceAlpha" type="matrix" values="0 0 0 0 0 0 0 0 0 0 0 0 0 0 0 0 0 0 127 0" result="hardAlpha"/>
<feOffset dy="4"/>
<feGaussianBlur stdDeviation="2"/>
<feComposite in2="hardAlpha" operator="arithmetic" k2="-1" k3="1"/>
<feColorMatrix type="matrix" values="0 0 0 0 0 0 0 0 0 0 0 0 0 0 0 0 0 0 0.25 0"/>
<feBlend mode="normal" in2="shape" result="effect1_innerShadow_292_83"/>
</filter>
</defs>
</svg>
